<?xml version="1.0" encoding="UTF-8"?><svg id="a" xmlns="http://www.w3.org/2000/svg" width="75.07" height="75" viewBox="0 0 75.07 75"><g><path d="m67.73,3.82c-2.22-.28-4.44-.55-6.66-.83-2.38-.3-4.75-.6-7.13-.89-2.22-.28-4.44-.56-6.66-.83-2.07-.26-4.14-.51-6.21-.77-1.21-.15-2.41-.3-3.62-.45-.04,0-.07-.02-.1-.04h-.15c0,.34,0,.67,0,1,0,24.34,0,48.67,0,73.01v.98c.37-.05.73-.09,1.08-.13,1.18-.15,2.35-.29,3.53-.44,1.16-.15,2.33-.29,3.49-.44,1.25-.16,2.5-.31,3.75-.47,1.26-.16,2.53-.31,3.79-.47,1.27-.16,2.54-.32,3.81-.48,1.26-.16,2.53-.32,3.79-.47,1.26-.16,2.51-.31,3.77-.47,1.27-.16,2.54-.32,3.81-.48,1.26-.16,2.51-.31,3.77-.47,1.09-.14,2.17-.28,3.26-.41V4.73c-2.45-.31-4.89-.61-7.34-.91Zm-24.74,35.03c-.75,0-1.35-.59-1.35-1.34,0-.75.61-1.36,1.36-1.35.74,0,1.34.61,1.34,1.36,0,.75-.6,1.34-1.35,1.34Z" fill="#232d4b" fill-rule="evenodd"/><path d="m23.14,5.08c-.08,0-.16,0-.25,0v64.86c.08,0,.16,0,.25,0,4.07,0,8.15,0,12.23,0h.23v-3.78h-8.91V8.85h8.91v-3.77h-.25c-4.07,0-8.14,0-12.21,0Z" fill="#232d4b" fill-rule="evenodd"/></g><path d="m33.1,38.09c-.97,1-1.95,1.99-2.93,3-.5-.44-.97-.89-1.47-1.33-.39.41-.78.82-1.18,1.24-.24-.19-.45-.41-.68-.61-.23-.2-.45-.41-.69-.62-.12.13-.24.25-.36.37-.28.3-.56.59-.85.89-.07.08-.08.08-.16,0-.42-.38-.83-.76-1.25-1.14-.04-.04-.09-.08-.14-.12-.43.45-.84.88-1.27,1.33-.5-.44-.97-.89-1.47-1.33-.43.43-.84.89-1.28,1.33-.26-.21-.5-.44-.74-.66-.24-.22-.48-.44-.73-.67-.15.15-.28.3-.42.44-.26.27-.52.55-.78.83-.04.05-.09.06-.15.06-.32,0-.64,0-.97,0-.09,0-.14.03-.19.1-1.05,1.53-2.47,2.51-4.29,2.88-1.47.3-2.89.11-4.24-.55-3-1.47-4.46-4.86-3.47-8.06.27-.88.72-1.67,1.32-2.37,1.01-1.16,2.27-1.9,3.78-2.2,1.45-.28,2.85-.12,4.18.52,1.53.73,2.62,1.89,3.3,3.44.04.09.09.12.18.12,4.59,0,9.19-.01,13.78-.02.15,0,.25.04.35.15.91.97,1.82,1.94,2.73,2.9.02.02.03.04.06.07Zm-24.89.5c.56-.8.33-1.87-.42-2.4-.77-.53-1.84-.35-2.38.42-.54.77-.36,1.84.41,2.39.77.54,1.85.36,2.39-.41Z" fill="#62bb46" fill-rule="evenodd"/></svg>