<?xml version="1.0" encoding="UTF-8"?><svg xmlns="http://www.w3.org/2000/svg" width="166.01" height="75.27" viewBox="0 0 166.01 75.27"><g id="a"><g><polygon points="26.24 10.9 21.06 10.9 21.06 7.71 7.32 7.71 7.32 26.53 39.98 26.53 39.98 7.71 26.24 7.71 26.24 10.9" fill="#e57200"/><polygon points="26.24 31.55 21.06 31.55 21.06 28.36 7.32 28.36 7.32 47.18 39.98 47.18 39.98 28.36 26.24 28.36 26.24 31.55" fill="#e57200"/><polygon points="26.24 52.2 21.06 52.2 21.06 49.01 7.32 49.01 7.32 67.83 39.98 67.83 39.98 49.01 26.24 49.01 26.24 52.2" fill="#e57200"/><polygon points="0 .27 0 75.27 5.49 75.27 5.49 5.76 41.81 5.76 41.81 75.27 47.3 75.27 47.3 .27 0 .27" fill="#232d4b"/></g></g><g id="b"><path d="m112.85,36.81h-3.99v-17.22c0-10.78-8.82-19.6-19.6-19.6s-19.6,8.82-19.6,19.6v17.22h-3.99c-.81,0-1.47.66-1.47,1.47v35.25c0,.81.66,1.47,1.47,1.47h47.18c.81,0,1.47-.66,1.47-1.47v-35.25c0-.81-.66-1.47-1.47-1.47Zm-21.5,19.91v8.22c0,.28-.23.51-.51.51h-3.16c-.28,0-.51-.23-.51-.51v-8.22c-1.27-.73-2.12-2.09-2.12-3.66,0-2.33,1.89-4.21,4.21-4.21s4.21,1.89,4.21,4.21c0,1.57-.86,2.93-2.12,3.66Zm-14.88-19.91v-17.22c0-7.05,5.74-12.79,12.79-12.79s12.79,5.74,12.79,12.79v17.22h-25.59Z" fill="#232d4b"/></g></svg>