<?xml version="1.0" encoding="UTF-8"?><svg xmlns="http://www.w3.org/2000/svg" width="75.07" height="75" viewBox="0 0 75.07 75"><g id="a"><path d="m17.01,35.07l-2.8,2.28c-.05-3.74,1.02-7.39,3.47-11.74,1.41-2.5,3.62-4.88,6.11-6.78-.05.57-.09,1.15-.09,1.73s.04,1.16.09,1.73c-1.54,1.41-2.88,3-3.79,4.62-1.7,3.01-2.66,5.62-3,8.15Zm57.31,6.32l-16.77-16.9c.32-1.26.52-2.57.52-3.93,0-8.68-7.04-15.73-15.73-15.73s-15.73,7.04-15.73,15.73c0,6.62,4.12,12.23,9.91,14.55-.27.58-.52,1.15-.85,1.73-1.45,2.57-3.52,4.87-5.75,6.53l-8.61-6.81c-.22-.17-.48-.26-.75-.26h0c-.26,0-.53.09-.75.26L.48,51.85c-.3.24-.48.6-.48.99v1.54c0,.7.56,1.26,1.26,1.26h3.58v12.2c0,1.28,1.1,2.31,2.46,2.31h9.64v-9.08c0-.33.29-.6.64-.6h5.98c.35,0,.64.27.64.6v9.08h9.64c1.36,0,2.45-1.03,2.45-2.31v-12.2h3.58c.7,0,1.26-.56,1.26-1.26v-1.54c0-.39-.17-.75-.48-.99l-6.52-5.16c-2.29,1.84-4.79,3.2-7.25,3.88-1.18.33-2.35.49-3.48.49-.33,0-.65-.06-.97-.11-.57.28-1.2.46-1.87.46-2.34,0-4.23-1.89-4.23-4.23s1.9-4.23,4.23-4.23c1.87,0,3.42,1.24,3.97,2.93-1.42.23-2.71.06-3.8-.56-.64-.36-1.45-.13-1.81.5-.36.64-.14,1.45.5,1.81,1.19.68,2.54,1.02,3.98,1.02.89,0,1.82-.13,2.76-.39,4.34-1.21,9.1-5.27,11.83-10.11,4.24-7.53,4.65-16.69.92-20.83-.49-.55-1.33-.59-1.88-.1-.55.49-.59,1.33-.1,1.88.86.96,1.44,2.49,1.7,4.32-2.38-.58-4.17-2.71-4.17-5.27,0-3.01,2.44-5.44,5.44-5.44s5.44,2.44,5.44,5.44c0,1.51-.61,2.87-1.6,3.85.77,4.25.15,9.37-1.9,14.27.16,0,.31.02.47.02,1.08,0,2.14-.11,3.16-.32l1.81,1.81c.32.32.79.45,1.23.34l5.3-1.35c.14-.03.28,0,.38.11.1.1.14.25.1.38l-1.65,5.67c-.04.14,0,.29.1.39.1.1.25.14.39.1l5.64-1.63c.14-.04.29,0,.39.1.1.1.14.25.09.39l-1.64,5.63c-.04.14,0,.29.1.39.1.11.25.14.39.1l5.63-1.64c.14-.04.29,0,.39.1.1.1.14.25.09.39l-1.56,4.84c-.08.27-.03.57.14.8.17.23.45.35.73.35,2.72-.05,9.88,0,9.88,0,.82-.09,1.46-.73,1.55-1.55v-8.44c.07-.68-.18-1.36-.67-1.84Z" fill="#232d4b"/></g><g id="b"><line x1="7.36" y1="43.23" x2="34.98" y2="71.23" fill="none" stroke="#d80945" stroke-miterlimit="10" stroke-width="3"/></g><g id="c"><line x1="4.9" y1="71.42" x2="33.28" y2="43.42" fill="none" stroke="#d80945" stroke-miterlimit="10" stroke-width="3"/></g></svg>