<svg id="checklist" xmlns="http://www.w3.org/2000/svg" viewBox="0 0 41.13 52.56"><defs><style>.cls-1{fill:#e57200;}.Graphic-Style-30{fill:#347bbb;}</style></defs><path class="cls-1" d="M23.46,27.22a.43.43,0,0,0-.18-.29c-.08-.05-.34-.18-.67.18l-2.22,2.22,0,0L20,29.07l-.24-.18a.36.36,0,0,0-.43,0,.35.35,0,0,0-.08.51l.74,1.34a.48.48,0,0,0,.42.29h.08a.46.46,0,0,0,.25-.17l2-2.47.63-.77A.42.42,0,0,0,23.46,27.22Z" transform="translate(-10.36 -1.26)"/><path class="Graphic-Style-30" d="M37.45,27.92c0-.35-.21-.64-.47-.64H25.19c-.26,0-.47.29-.47.64s.21.64.47.64H37C37.24,28.56,37.45,28.28,37.45,27.92Z" transform="translate(-10.36 -1.26)"/><path class="Graphic-Style-30" d="M25.19,30.58h8.05a.64.64,0,0,0,.64-.64h0a.64.64,0,0,0-.64-.64h-8c-.26,0-.47.29-.47.64S24.93,30.58,25.19,30.58Z" transform="translate(-10.36 -1.26)"/><path class="cls-1" d="M23.1,34.76c-.08,0-.35-.18-.67.17l-2.22,2.23,0,0-.41-.29-.25-.18a.34.34,0,0,0-.42,0,.38.38,0,0,0-.11.11.42.42,0,0,0,0,.4l.74,1.33c.14.25.3.3.41.3h.09a.48.48,0,0,0,.24-.17l2-2.47.63-.77a.46.46,0,0,0,.11-.36A.39.39,0,0,0,23.1,34.76Z" transform="translate(-10.36 -1.26)"/><path class="Graphic-Style-30" d="M36.92,35.13a.27.27,0,0,0-.12,0H25a.42.42,0,0,0-.32.19.76.76,0,0,0-.14.46c0,.35.21.64.46.64H35.15A10.94,10.94,0,0,1,36.92,35.13Z" transform="translate(-10.36 -1.26)"/><path class="Graphic-Style-30" d="M33.67,38h0a.64.64,0,0,0,0-.2.65.65,0,0,0-.64-.64H25c-.25,0-.46.29-.46.64s.21.65.46.65h8.06a.61.61,0,0,0,.35-.11h0Z" transform="translate(-10.36 -1.26)"/><path class="cls-1" d="M19.71,21.11a.36.36,0,0,0-.43,0,.35.35,0,0,0-.08.51l.74,1.34a.48.48,0,0,0,.42.29h.08a.46.46,0,0,0,.25-.17l2-2.47.63-.77a.46.46,0,0,0,.11-.36.41.41,0,0,0-.18-.28c-.08,0-.34-.18-.67.18l-2.22,2.22,0,0c-.14-.09-.27-.18-.41-.29Z" transform="translate(-10.36 -1.26)"/><path class="Graphic-Style-30" d="M33.24,22.8a.64.64,0,0,0,.64-.64h0a.64.64,0,0,0-.64-.64h-8c-.26,0-.47.28-.47.64s.21.64.47.64Z" transform="translate(-10.36 -1.26)"/><path class="Graphic-Style-30" d="M37,19.5H25.19c-.26,0-.47.29-.47.64s.21.64.47.64H37c.26,0,.47-.29.47-.64S37.24,19.5,37,19.5Z" transform="translate(-10.36 -1.26)"/><path class="Graphic-Style-30" d="M42.3,33.65h.16a11.26,11.26,0,0,1,3.59.59V8.77A2.9,2.9,0,0,0,43,6.09H36.26q0,1,0,1.89V9.36h6Z" transform="translate(-10.36 -1.26)"/><path class="Graphic-Style-30" d="M14.1,48.55V9.36h6V8c0-.61,0-1.24,0-1.88H13.43a2.89,2.89,0,0,0-3.07,2.68V49.13a2.89,2.89,0,0,0,3.07,2.68H33.82A10.93,10.93,0,0,1,32,48.55Z" transform="translate(-10.36 -1.26)"/><path class="Graphic-Style-30" d="M34.85,9.35c0-1.08,0-2.14,0-3.19A1.17,1.17,0,0,0,33.68,5c-.37,0-.73,0-1.09,0A4.45,4.45,0,0,0,23.8,5c-.37,0-.73,0-1.08,0a1.12,1.12,0,0,0-1.14,1c0,1.11,0,2.22,0,3.34Zm-6.65-6a1.95,1.95,0,1,1-1.95,1.95A1.95,1.95,0,0,1,28.2,3.36Z" transform="translate(-10.36 -1.26)"/><path class="cls-1" d="M42.46,35.75a9,9,0,1,0,9,9A9,9,0,0,0,42.46,35.75ZM48,40.31a14.38,14.38,0,0,0-2.43,2.11,18.53,18.53,0,0,0-3.63,6,2.31,2.31,0,0,1-1.43,1.43c-1.13.42-1.21.62-1.88-.7a13,13,0,0,0-3-3.64l-.28-.25c-.25-.26-.21-.52.13-.63.79-.28,1.6-.53,2.4-.78a.56.56,0,0,1,.63.27A11.86,11.86,0,0,1,40,46.3c.39-.58.74-1.14,1.13-1.67A16.2,16.2,0,0,1,47,39.76a1.12,1.12,0,0,1,1,0c.14.06.31.08.35.26S48.13,40.22,48,40.31Z" transform="translate(-10.36 -1.26)"/></svg>